<svg xmlns="http://www.w3.org/2000/svg" xmlns:xlink="http://www.w3.org/1999/xlink" width="1192" height="982.595" x="0" y="0" enable-background="new 0 0 1192 982.595" version="1.1" viewBox="0 0 1192 982.595" xml:space="preserve"><g id="Layer_1"><radialGradient id="SVGID_1_" cx="368.136" cy="772.439" r="177.863" gradientUnits="userSpaceOnUse"><stop offset="0" style="stop-color:#8cc85d"/><stop offset=".201" style="stop-color:#81a97d"/><stop offset=".484" style="stop-color:#758593"/><stop offset=".721" style="stop-color:#6d6c9d"/><stop offset=".9" style="stop-color:#695ca1"/><stop offset="1" style="stop-color:#6755a4"/></radialGradient><path fill="url(#SVGID_1_)" d="M483.528,940.275v-0.005l71.961-71.88l-0.027-0.026l0.006,0.003V732.894 l-76.635-44.244l-26.079,26.078c-3.681-2.446-8.094-3.876-12.835-3.876c-0.707,0-1.405,0.037-2.097,0.099l-33.528-67.593 c3.646-4.116,5.867-9.522,5.867-15.44c0-12.855-10.458-23.314-23.313-23.314c-12.855,0-23.313,10.458-23.313,23.314 c0,12.855,10.458,23.314,23.313,23.314c1.099,0,2.179-0.083,3.238-0.23l33.182,66.895c-4.083,4.192-6.605,9.912-6.605,16.212 c0,12.825,10.433,23.258,23.257,23.258c12.823,0,23.257-10.433,23.257-23.258c0-3.054-0.598-5.97-1.673-8.646l19.597-19.597 l60.592,34.983v121.493l0.007,0.004l-63.981,63.908H180.782v14.021H483.528z M379.66,627.917c0-3.964,3.225-7.189,7.189-7.189 s7.188,3.225,7.188,7.189s-3.225,7.188-7.188,7.188S379.66,631.881,379.66,627.917z M439.92,741.584 c-4.123,0-7.476-3.354-7.476-7.477c0-4.121,3.354-7.475,7.476-7.475c4.122,0,7.476,3.354,7.476,7.475 C447.396,738.23,444.042,741.584,439.92,741.584z" opacity=".1"/><radialGradient id="SVGID_2_" cx="713.747" cy="696.814" r="210.444" gradientUnits="userSpaceOnUse"><stop offset="0" style="stop-color:#8cc85d"/><stop offset=".201" style="stop-color:#81a97d"/><stop offset=".484" style="stop-color:#758593"/><stop offset=".721" style="stop-color:#6d6c9d"/><stop offset=".9" style="stop-color:#695ca1"/><stop offset="1" style="stop-color:#6755a4"/></radialGradient><path fill="url(#SVGID_2_)" d="M644.44,646.617l25.851-25.852h24.021c2.792,9.713,11.751,16.842,22.351,16.842 c12.823,0,23.256-10.433,23.256-23.256s-10.433-23.257-23.256-23.257c-10.252,0-18.969,6.67-22.057,15.895h-21.794v-14.885 c8.961-3.233,15.386-11.821,15.386-21.882c0-0.427-0.014-0.851-0.036-1.272l34.863-12.36c4.274,4.843,10.522,7.906,17.474,7.906 c12.855,0,23.313-10.458,23.313-23.314c0-7.329-3.402-13.874-8.706-18.151l18.5-65.371c12.815-0.047,23.228-10.485,23.228-23.312 c0-12.855-10.458-23.313-23.313-23.313c-12.854,0-23.313,10.458-23.313,23.313c0,7.101,3.194,13.466,8.218,17.746l-18.62,65.791 c-12.533,0.37-22.619,10.674-22.619,23.296c0,0.124,0.008,0.245,0.01,0.367l-35.487,12.582c-4.235-4.411-10.185-7.165-16.768-7.165 c-12.823,0-23.256,10.433-23.256,23.257c0,10.784,7.379,19.875,17.352,22.495v19.822l-28.371,28.372v251.098h0.011l-0.014,0.014 l61.571,90.572h19.83l-67.622-96.623V646.617z M716.662,606.875c4.122,0,7.476,3.354,7.476,7.476c0,4.122-3.354,7.476-7.476,7.476 c-4.123,0-7.477-3.354-7.477-7.476C709.186,610.229,712.539,606.875,716.662,606.875z M773.52,427.159 c3.964,0,7.188,3.225,7.188,7.189s-3.225,7.189-7.188,7.189s-7.188-3.225-7.188-7.189S769.556,427.159,773.52,427.159z M740.498,533.992c3.964,0,7.188,3.225,7.188,7.189s-3.225,7.189-7.188,7.189s-7.188-3.225-7.188-7.189 S736.534,533.992,740.498,533.992z M657.465,570.222c0-4.123,3.354-7.476,7.475-7.476c4.122,0,7.476,3.354,7.476,7.476 c0,4.122-3.354,7.475-7.476,7.475C660.818,577.697,657.465,574.344,657.465,570.222z" opacity=".1"/><radialGradient id="SVGID_3_" cx="609.164" cy="611.161" r="284.355" gradientUnits="userSpaceOnUse"><stop offset="0" style="stop-color:#8cc85d"/><stop offset=".201" style="stop-color:#81a97d"/><stop offset=".484" style="stop-color:#758593"/><stop offset=".721" style="stop-color:#6d6c9d"/><stop offset=".9" style="stop-color:#695ca1"/><stop offset="1" style="stop-color:#6755a4"/></radialGradient><path fill="url(#SVGID_3_)" d="M647.241,520.988l27.937-27.937c3.183,1.638,6.785,2.568,10.603,2.568h0.01 c6.213-0.002,12.053-2.424,16.443-6.818c4.392-4.395,6.808-10.237,6.804-16.46c-0.003-6.905-3.033-13.113-7.832-17.375 l22.229-63.306c0.426,0.023,0.854,0.037,1.284,0.037c12.855,0,23.313-10.458,23.313-23.314c0-8.819-4.923-16.509-12.164-20.469 l8.705-62.019c10.658-2.143,18.71-11.576,18.71-22.855c0-12.855-10.458-23.314-23.312-23.314 c-12.855,0-23.313,10.458-23.313,23.314c0,8.745,4.842,16.375,11.982,20.365l-8.726,62.166 c-10.558,2.221-18.509,11.604-18.509,22.812c0,6.61,2.77,12.581,7.203,16.828l-22.435,63.893c-0.134-0.002-0.267-0.011-0.401-0.011 c-6.213,0.002-12.053,2.424-16.442,6.819c-4.392,4.394-6.809,10.235-6.806,16.46c0.001,3.996,1.018,7.76,2.802,11.047 L637.5,511.247l-28.787-28.787c2.143-3.522,3.377-7.657,3.376-12.075c-0.006-12.819-10.439-23.247-23.267-23.247 c-3.709,0.002-7.215,0.881-10.329,2.434l-30.979-28.703c1.161-2.768,1.805-5.805,1.805-8.989c0-6.647-2.801-12.648-7.278-16.899 l22.728-58.9c0.269,0.009,0.536,0.021,0.807,0.021c12.855,0,23.313-10.458,23.313-23.313c0-12.855-10.458-23.314-23.313-23.314 c-5.864,0-11.225,2.181-15.326,5.768l-49.021-21.408c0.288-1.462,0.443-2.971,0.443-4.516c0-12.855-10.458-23.313-23.313-23.313 s-23.314,10.458-23.314,23.313c0,12.855,10.459,23.314,23.314,23.314c5.396,0,10.365-1.848,14.32-4.937l49.826,21.76 c-0.156,1.089-0.242,2.201-0.242,3.333c0,6.796,2.925,12.921,7.58,17.186l-22.622,58.624c-0.402-0.021-0.807-0.032-1.214-0.032 c-12.855,0-23.314,10.458-23.314,23.314c0,12.855,10.459,23.313,23.314,23.313c3.785,0,7.359-0.913,10.523-2.521l30.901,28.631 c-1.193,2.801-1.855,5.881-1.854,9.115c0.006,12.818,10.438,23.247,23.256,23.247h0.012c3.396-0.001,6.623-0.742,9.535-2.059 l29.394,29.394l-20.136,20.136v441.458h13.776V546.843l25.842-25.842L647.241,520.988z M739.971,255.852 c3.963,0,7.188,3.225,7.188,7.189s-3.225,7.189-7.188,7.189c-3.965,0-7.189-3.225-7.189-7.189S736.006,255.852,739.971,255.852z M724.719,361.195c3.964,0,7.188,3.225,7.188,7.188c0,3.964-3.225,7.189-7.188,7.189s-7.188-3.225-7.188-7.189 C717.53,364.42,720.755,361.195,724.719,361.195z M680.493,467.066c1.411-1.413,3.288-2.191,5.289-2.191 c4.12,0,7.473,3.352,7.474,7.486c0.001,1.997-0.775,3.874-2.187,5.286c-1.411,1.413-3.288,2.191-5.286,2.192l-0.003,7.891v-7.891 c-4.12,0-7.474-3.353-7.475-7.485C678.305,470.356,679.081,468.479,680.493,467.066z M565.575,305.599 c3.964,0,7.188,3.225,7.188,7.189c0,3.963-3.225,7.188-7.188,7.188s-7.189-3.225-7.189-7.188 C558.386,308.824,561.611,305.599,565.575,305.599z M478.358,276.507c-3.964,0-7.189-3.225-7.189-7.189s3.225-7.189,7.189-7.189 c3.964,0,7.188,3.225,7.188,7.189S482.322,276.507,478.358,276.507z M526.005,419.068c-3.964,0-7.189-3.225-7.189-7.188 s3.225-7.189,7.189-7.189c3.964,0,7.188,3.225,7.188,7.189S529.969,419.068,526.005,419.068z M588.836,477.885l-0.005,7.89v-7.89 c-4.12,0-7.474-3.353-7.475-7.486c-0.002-4.122,3.351-7.477,7.475-7.479c4.12,0,7.476,3.353,7.477,7.485 C596.31,474.528,592.957,477.883,588.836,477.885z" opacity=".1"/><radialGradient id="SVGID_4_" cx="467.258" cy="651.285" r="252.062" gradientUnits="userSpaceOnUse"><stop offset="0" style="stop-color:#8cc85d"/><stop offset=".201" style="stop-color:#81a97d"/><stop offset=".484" style="stop-color:#758593"/><stop offset=".721" style="stop-color:#6d6c9d"/><stop offset=".9" style="stop-color:#695ca1"/><stop offset="1" style="stop-color:#6755a4"/></radialGradient><path fill="url(#SVGID_4_)" d="M530.981,524.628c1.997,0.561,4.1,0.868,6.274,0.868 c12.824,0,23.257-10.434,23.257-23.258c0-12.823-10.433-23.256-23.257-23.256c-12.823,0-23.257,10.433-23.257,23.256 c0,5.66,2.034,10.852,5.407,14.888l-20.323,35.2L478.6,540.5v-24.547c9.466-2.947,16.358-11.79,16.358-22.212 c0-11.378-8.215-20.866-19.023-22.864l-6.911-82.292c6.983-4.032,11.697-11.574,11.697-20.201 c0-12.855-10.458-23.313-23.313-23.313c-7.301,0-13.826,3.376-18.104,8.646l-57.22-13.857 c-1.665-11.234-11.37-19.883-23.059-19.883c-12.855,0-23.314,10.458-23.314,23.314c0,12.855,10.458,23.313,23.314,23.313 c8.317,0,15.626-4.381,19.754-10.954l55.333,13.399c0.313,11.075,8.382,20.237,18.958,22.237l6.918,82.375 c-6.898,4.04-11.544,11.525-11.544,20.08c0,10.431,6.903,19.279,16.38,22.218v21.45h-20.827 c-3.075-9.248-11.802-15.938-22.069-15.938c-1.643,0-3.247,0.174-4.794,0.5l-17.355-32.748c3.832-4.156,6.177-9.702,6.177-15.787 c0-12.855-10.458-23.313-23.313-23.313c-12.855,0-23.313,10.458-23.313,23.313c0,12.855,10.458,23.314,23.313,23.314 c0.943,0,1.871-0.063,2.785-0.172l18.036,34.034c-3.002,3.917-4.792,8.811-4.792,14.117c0,12.824,10.433,23.256,23.257,23.256 c10.583,0,19.532-7.108,22.337-16.8h25.288l115.476,66.67v364.74h13.776V609.901l-87.793-50.687L530.981,524.628z M537.255,494.763 c4.123,0,7.477,3.354,7.477,7.475c0,4.123-3.354,7.476-7.477,7.476c-4.122,0-7.477-3.354-7.477-7.476 C529.779,498.117,533.133,494.763,537.255,494.763z M375.453,473.436c0-3.963,3.225-7.188,7.189-7.188s7.188,3.225,7.188,7.188 c0,3.964-3.225,7.189-7.188,7.189S375.453,477.4,375.453,473.436z M421.928,552.204c-4.122,0-7.476-3.354-7.476-7.476 c0-4.123,3.354-7.476,7.476-7.476s7.476,3.354,7.476,7.476C429.403,548.85,426.05,552.204,421.928,552.204z M359.025,350.479 c-3.964,0-7.189-3.225-7.189-7.188c0-3.964,3.225-7.189,7.189-7.189s7.188,3.225,7.188,7.189 C366.213,347.253,362.989,350.479,359.025,350.479z M450.219,368.384c0-3.963,3.225-7.188,7.189-7.188 c3.963,0,7.188,3.225,7.188,7.188c0,3.964-3.225,7.189-7.188,7.189C453.444,375.573,450.219,372.348,450.219,368.384z M471.7,501.217c-4.122,0-7.476-3.354-7.476-7.476c0-4.123,3.354-7.477,7.476-7.477c4.123,0,7.477,3.354,7.477,7.477 C479.177,497.863,475.823,501.217,471.7,501.217z" opacity=".1"/><radialGradient id="SVGID_5_" cx="509.33" cy="795.736" r="140.407" gradientUnits="userSpaceOnUse"><stop offset="0" style="stop-color:#8cc85d"/><stop offset=".201" style="stop-color:#81a97d"/><stop offset=".484" style="stop-color:#758593"/><stop offset=".721" style="stop-color:#6d6c9d"/><stop offset=".9" style="stop-color:#695ca1"/><stop offset="1" style="stop-color:#6755a4"/></radialGradient><path fill="url(#SVGID_5_)" d="M488.195,627.446c-2.175-10.585-11.563-18.568-22.781-18.568 c-12.823,0-23.257,10.433-23.257,23.257c0,12.824,10.433,23.257,23.257,23.257c9.601,0,17.861-5.849,21.406-14.17h36.744 l39.165,22.611l-0.069,225.598l-64.049,93.051l19.717,0.113l58.107-87.108l0.069-239.606l-49.25-28.434H488.195z M465.414,639.61 c-4.122,0-7.476-3.354-7.476-7.476s3.354-7.476,7.476-7.476c4.122,0,7.475,3.354,7.475,7.476S469.535,639.61,465.414,639.61z" opacity=".1"/><radialGradient id="SVGID_6_" cx="842.413" cy="715.889" r="207.012" gradientUnits="userSpaceOnUse"><stop offset="0" style="stop-color:#8cc85d"/><stop offset=".201" style="stop-color:#81a97d"/><stop offset=".484" style="stop-color:#758593"/><stop offset=".721" style="stop-color:#6d6c9d"/><stop offset=".9" style="stop-color:#695ca1"/><stop offset="1" style="stop-color:#6755a4"/></radialGradient><path fill="url(#SVGID_6_)" d="M668.217,861.098V707.539l37.633-37.634h43.482l13.871,24.027 c-4.286,4.22-6.949,10.085-6.949,16.561c0,12.824,10.434,23.257,23.258,23.257c8.244,0,15.495-4.315,19.626-10.803l54.47,9.88 c2.252,10.517,11.615,18.428,22.795,18.428c12.854,0,23.312-10.458,23.312-23.313c0-8.404-4.472-15.783-11.159-19.887l7.885-63.95 c0.532-0.111,1.055-0.245,1.571-0.392l45.808,57.329c-1.521,3.095-2.379,6.572-2.379,10.247c0,12.855,10.459,23.313,23.314,23.313 c12.854,0,23.312-10.458,23.312-23.313s-10.458-23.313-23.312-23.313c-3.272,0-6.387,0.681-9.215,1.902L911.052,634.2 c2.471-3.699,3.914-8.14,3.914-12.912c0-12.855-10.458-23.314-23.313-23.314c-12.854,0-23.313,10.458-23.313,23.314 c0,8.811,4.914,16.495,12.145,20.458l-7.79,63.18c-7.259,1.166-13.41,5.691-16.796,11.929l-53.369-9.68 c-1.616-11.258-11.319-19.939-23.017-19.939c-1.385,0-2.74,0.129-4.059,0.362l-13.421-23.246l29.607-29.608 c3.183,1.638,6.785,2.569,10.604,2.569h0.011c12.824-0.006,23.251-10.443,23.246-23.279c-0.001-1.625-0.171-3.212-0.49-4.744 l38.204-28.427c3.753,2.585,8.296,4.103,13.188,4.103c12.854,0,23.312-10.458,23.312-23.313s-10.458-23.313-23.312-23.313 c-5.023,0-9.675,1.602-13.485,4.314l-30.165-21.809c0.525-1.94,0.811-3.978,0.811-6.083c0-12.855-10.459-23.313-23.313-23.313 c-12.855,0-23.314,10.458-23.314,23.313s10.459,23.313,23.314,23.313c4.882,0,9.415-1.51,13.164-4.085l30.382,21.965 c-0.46,1.824-0.707,3.732-0.707,5.697c0,2.092,0.281,4.119,0.802,6.05l-37.501,27.903c-3.924-3.018-8.832-4.818-14.156-4.818 c-6.212,0.003-12.051,2.425-16.441,6.819c-4.391,4.395-6.808,10.236-6.805,16.461c0.001,3.996,1.017,7.76,2.802,11.047 l-31.017,31.018h-50.629l-45.703,45.702l0.017,165.336l73.161,73.162l0.096-0.096v0.041h302.674v-14.021H733.372L668.217,861.098z M964.755,704.1c3.963,0,7.188,3.225,7.188,7.188s-3.225,7.188-7.188,7.188c-3.965,0-7.189-3.225-7.189-7.188 S960.79,704.1,964.755,704.1z M891.652,614.099c3.964,0,7.188,3.225,7.188,7.189c0,3.963-3.225,7.188-7.188,7.188 s-7.188-3.225-7.188-7.188C884.464,617.324,887.688,614.099,891.652,614.099z M876.402,720.753c3.963,0,7.188,3.225,7.188,7.188 s-3.225,7.188-7.188,7.188c-3.965,0-7.189-3.225-7.189-7.188S872.438,720.753,876.402,720.753z M779.512,703.017 c4.122,0,7.476,3.354,7.476,7.477s-3.354,7.476-7.476,7.476s-7.477-3.354-7.477-7.476S775.39,703.017,779.512,703.017z M876.402,554.462c3.963,0,7.187,3.225,7.187,7.189s-3.224,7.189-7.187,7.189c-3.965,0-7.189-3.225-7.189-7.189 S872.438,554.462,876.402,554.462z M810.249,521.949c-3.964,0-7.189-3.225-7.189-7.189s3.226-7.189,7.189-7.189 s7.188,3.225,7.188,7.189S814.213,521.949,810.249,521.949z M796.954,608.758c1.411-1.413,3.289-2.191,5.288-2.192 c4.12,0,7.475,3.352,7.477,7.486c0,1.997-0.776,3.875-2.188,5.287c-1.411,1.413-3.287,2.191-5.284,2.192l-0.004,7.89v-7.89 c-4.121,0-7.475-3.352-7.477-7.486C794.766,612.048,795.543,610.171,796.954,608.758z" opacity=".1"/><radialGradient id="SVGID_7_" cx="296.409" cy="684.855" r="67.898" gradientUnits="userSpaceOnUse"><stop offset="0" style="stop-color:#8cc85d"/><stop offset=".201" style="stop-color:#81a97d"/><stop offset=".484" style="stop-color:#758593"/><stop offset=".721" style="stop-color:#6d6c9d"/><stop offset=".9" style="stop-color:#695ca1"/><stop offset="1" style="stop-color:#6755a4"/></radialGradient><path fill="url(#SVGID_7_)" d="M343.773,749.854c12.855,0,23.313-10.459,23.313-23.314s-10.458-23.313-23.313-23.313 c-1.091,0-2.164,0.081-3.216,0.228l-19.591-44.304c3.94-4.177,6.363-9.8,6.363-15.981c0-12.855-10.458-23.313-23.313-23.313 c-12.855,0-23.313,10.458-23.313,23.313c0,4.543,1.311,8.785,3.567,12.373l-29.559,41.551c-1.815-0.455-3.712-0.699-5.667-0.699 c-12.855,0-23.313,10.458-23.313,23.313s10.458,23.313,23.313,23.313c12.855,0,23.313-10.458,23.313-23.313 c0-5.034-1.609-9.697-4.333-13.512l29.01-40.78c2.205,0.693,4.55,1.068,6.98,1.068c0.846,0,1.68-0.048,2.502-0.137l19.797,44.768 c-3.639,4.114-5.854,9.515-5.854,15.426C320.46,739.395,330.918,749.854,343.773,749.854z M350.962,726.539 c0,3.964-3.225,7.189-7.188,7.189s-7.188-3.226-7.188-7.189s3.225-7.188,7.188-7.188S350.962,722.575,350.962,726.539z M304.016,635.98c3.964,0,7.188,3.225,7.188,7.188c0,3.964-3.225,7.189-7.188,7.189s-7.189-3.225-7.189-7.189 C296.827,639.205,300.052,635.98,304.016,635.98z M249.044,726.895c-3.964,0-7.189-3.225-7.189-7.188s3.225-7.189,7.189-7.189 s7.188,3.226,7.188,7.189S253.008,726.895,249.044,726.895z" opacity=".1"/><radialGradient id="SVGID_8_" cx="925.382" cy="487.648" r="147.124" gradientUnits="userSpaceOnUse"><stop offset="0" style="stop-color:#8cc85d"/><stop offset=".201" style="stop-color:#81a97d"/><stop offset=".484" style="stop-color:#758593"/><stop offset=".721" style="stop-color:#6d6c9d"/><stop offset=".9" style="stop-color:#695ca1"/><stop offset="1" style="stop-color:#6755a4"/></radialGradient><path fill="url(#SVGID_8_)" d="M1025.266,608.693c-5.021,0-9.671,1.601-13.479,4.31l-22.954-17.17 c0.729-2.254,1.126-4.657,1.126-7.15c0-9.314-5.492-17.366-13.405-21.098l2.465-42.297c10.629-2.165,18.652-11.585,18.652-22.845 c0-12.855-10.458-23.314-23.312-23.314c-4.987,0-9.609,1.579-13.404,4.257l-68.322-41.183c0.126-0.981,0.198-1.979,0.198-2.993 c0-3.068-0.601-5.997-1.684-8.682l21.147-25.516c2.849,1.243,5.989,1.937,9.29,1.937c12.855,0,23.313-10.458,23.313-23.313 s-10.458-23.313-23.313-23.313c-12.854,0-23.313,10.458-23.313,23.313c0,3.653,0.847,7.111,2.351,10.192l-20.439,24.662 c-3.199-1.653-6.823-2.593-10.665-2.593c-0.896,0-1.778,0.056-2.648,0.155l-24.186-57.022c3.805-4.15,6.132-9.678,6.132-15.739 c0-12.855-10.459-23.314-23.313-23.314c-12.855,0-23.314,10.458-23.314,23.314c0,12.855,10.459,23.313,23.314,23.313 c0.95,0,1.885-0.063,2.805-0.175l24.145,56.922c-3.873,4.164-6.247,9.738-6.247,15.859c0,12.855,10.459,23.314,23.313,23.314 c6,0,11.477-2.279,15.612-6.016l66.639,40.168c-0.471,1.845-0.723,3.777-0.723,5.767c0,8.737,4.834,16.363,11.966,20.355 l-2.529,43.404c-9.871,2.71-17.148,11.759-17.148,22.48c0,12.855,10.459,23.313,23.313,23.313c4.481,0,8.67-1.274,12.229-3.475 l23.784,17.791c-0.46,1.824-0.707,3.731-0.707,5.695c0,12.855,10.459,23.313,23.314,23.313c12.854,0,23.312-10.458,23.312-23.313 S1038.12,608.693,1025.266,608.693z M974.357,495.254c3.963,0,7.188,3.225,7.188,7.189s-3.226,7.188-7.188,7.188 c-3.964,0-7.188-3.225-7.188-7.188S970.394,495.254,974.357,495.254z M921.583,376.446c3.964,0,7.188,3.225,7.188,7.189 s-3.225,7.189-7.188,7.189s-7.188-3.225-7.188-7.189S917.619,376.446,921.583,376.446z M818.311,343.29 c0-3.964,3.225-7.189,7.189-7.189c3.964,0,7.188,3.225,7.188,7.189c0,3.963-3.225,7.188-7.188,7.188 C821.535,350.479,818.311,347.253,818.311,343.29z M869.516,446.398c-3.964,0-7.188-3.225-7.188-7.189s3.225-7.189,7.188-7.189 s7.188,3.225,7.188,7.189S873.479,446.398,869.516,446.398z M966.646,595.871c-3.964,0-7.188-3.225-7.188-7.189 s3.225-7.189,7.188-7.189s7.188,3.225,7.188,7.189S970.609,595.871,966.646,595.871z M1025.266,639.196 c-3.965,0-7.189-3.225-7.189-7.189s3.225-7.189,7.189-7.189c3.963,0,7.188,3.225,7.188,7.189S1029.229,639.196,1025.266,639.196z" opacity=".1"/><radialGradient id="SVGID_9_" cx="649.867" cy="310.224" r="78.325" gradientUnits="userSpaceOnUse"><stop offset="0" style="stop-color:#8cc85d"/><stop offset=".201" style="stop-color:#81a97d"/><stop offset=".484" style="stop-color:#758593"/><stop offset=".721" style="stop-color:#6d6c9d"/><stop offset=".9" style="stop-color:#695ca1"/><stop offset="1" style="stop-color:#6755a4"/></radialGradient><path fill="url(#SVGID_9_)" d="M630.665,365.88c-12.855,0-23.313,10.458-23.313,23.314 c0,12.855,10.458,23.313,23.313,23.313c12.854,0,23.312-10.458,23.312-23.313c0-6.695-2.84-12.734-7.373-16.99l21.265-51.385 c0.396,0.02,0.797,0.03,1.199,0.03c12.854,0,23.313-10.458,23.313-23.313s-10.459-23.313-23.313-23.313 c-1.561,0-3.085,0.157-4.56,0.451l-16.623-27.723c3.782-4.146,6.092-9.657,6.092-15.697c0-12.855-10.458-23.314-23.312-23.314 c-12.855,0-23.313,10.458-23.313,23.314c0,12.855,10.458,23.313,23.313,23.313c0.974,0,1.932-0.067,2.875-0.184l17.229,28.733 c-3.136,3.971-5.014,8.979-5.014,14.419c0,6.656,2.808,12.666,7.297,16.917l-21.293,51.455 C631.396,365.892,631.032,365.88,630.665,365.88z M676.257,297.536c0,3.964-3.225,7.189-7.188,7.189s-7.189-3.225-7.189-7.189 s3.226-7.189,7.189-7.189S676.257,293.572,676.257,297.536z M623.476,231.253c0-3.964,3.226-7.189,7.189-7.189 c3.963,0,7.188,3.225,7.188,7.189c0,3.963-3.225,7.188-7.188,7.188C626.701,238.442,623.476,235.217,623.476,231.253z M630.665,396.383c-3.964,0-7.189-3.225-7.189-7.188s3.226-7.189,7.189-7.189c3.963,0,7.188,3.225,7.188,7.189 S634.628,396.383,630.665,396.383z" opacity=".1"/><radialGradient id="SVGID_10_" cx="255.352" cy="535.15" r="115.233" gradientUnits="userSpaceOnUse"><stop offset="0" style="stop-color:#8cc85d"/><stop offset=".201" style="stop-color:#81a97d"/><stop offset=".484" style="stop-color:#758593"/><stop offset=".721" style="stop-color:#6d6c9d"/><stop offset=".9" style="stop-color:#695ca1"/><stop offset="1" style="stop-color:#6755a4"/></radialGradient><path fill="url(#SVGID_10_)" d="M205.496,643.168c0-2.742-0.479-5.374-1.353-7.819l32.186-25.039 c3.66,2.392,8.027,3.789,12.716,3.789c12.855,0,23.313-10.458,23.313-23.314c0-10.142-6.512-18.787-15.572-21.986l-2.864-58.366 c0.596-0.231,1.183-0.48,1.753-0.758l50.351,40.646c-0.53,1.949-0.818,3.997-0.818,6.111c0,12.855,10.458,23.313,23.314,23.313 c12.855,0,23.313-10.458,23.313-23.313c0-11.566-8.467-21.188-19.528-23.002l-10.161-84.746 c8.464-3.499,14.438-11.84,14.438-21.554c0-12.855-10.458-23.313-23.313-23.313c-12.855,0-23.314,10.458-23.314,23.313 c0,10.308,6.727,19.069,16.02,22.139l10.458,87.233c-0.35,0.213-0.692,0.437-1.029,0.667l-48.512-39.162 c1.251-2.856,1.95-6.008,1.95-9.32c0-12.855-10.458-23.314-23.313-23.314c-12.855,0-23.314,10.458-23.314,23.314 c0,10.142,6.512,18.787,15.572,21.987l2.864,58.366c-8.72,3.376-14.923,11.848-14.923,21.745c0,2.291,0.337,4.503,0.956,6.596 l-32.889,25.586c-3.423-1.976-7.388-3.113-11.616-3.113c-12.855,0-23.313,10.458-23.313,23.313s10.458,23.314,23.313,23.314 S205.496,656.023,205.496,643.168z M249.044,597.974c-3.964,0-7.189-3.225-7.189-7.189c0-3.963,3.225-7.188,7.189-7.188 s7.188,3.225,7.188,7.188C256.233,594.749,253.008,597.974,249.044,597.974z M335.711,556.433c0,3.963-3.225,7.188-7.188,7.188 s-7.189-3.225-7.189-7.188c0-3.964,3.225-7.189,7.189-7.189S335.711,552.469,335.711,556.433z M313.271,419.942 c3.964,0,7.188,3.225,7.188,7.188s-3.225,7.189-7.188,7.189s-7.189-3.225-7.189-7.189S309.308,419.942,313.271,419.942z M245.532,481.499c3.963,0,7.188,3.225,7.188,7.189s-3.225,7.189-7.188,7.189c-3.964,0-7.189-3.225-7.189-7.189 S241.568,481.499,245.532,481.499z M174.994,643.168c0-3.963,3.225-7.188,7.188-7.188c3.964,0,7.188,3.225,7.188,7.188 c0,3.964-3.225,7.189-7.188,7.189C178.219,650.357,174.994,647.133,174.994,643.168z" opacity=".1"/></g><g id="Layer_2"><circle cx="240.202" cy="225.256" r="14.471" fill="none" stroke="#69459B" stroke-miterlimit="10" opacity=".2"/><circle cx="160.253" cy="268.411" r="14.471" fill="none" stroke="#69459B" stroke-miterlimit="10" opacity=".2"/><circle cx="158.869" cy="447.573" r="14.471" fill="none" stroke="#69459B" stroke-miterlimit="10" opacity=".2"/><circle cx="153.725" cy="352.94" r="14.472" fill="none" stroke="#69459B" stroke-miterlimit="10" opacity=".2"/><circle cx="254.673" cy="310.224" r="14.472" fill="none" stroke="#69459B" stroke-miterlimit="10" opacity=".2"/><circle cx="240.202" cy="133.412" r="14.472" fill="none" stroke="#69459B" stroke-miterlimit="10" opacity=".2"/><circle cx="124.782" cy="76.412" r="14.472" fill="none" stroke="#69459B" stroke-miterlimit="10" opacity=".2"/><circle cx="145.782" cy="166.412" r="14.472" fill="none" stroke="#69459B" stroke-miterlimit="10" opacity=".2"/><circle cx="451.782" cy="205.412" r="14.472" fill="none" stroke="#69459B" stroke-miterlimit="10" opacity=".2"/><circle cx="439.782" cy="139.412" r="14.472" fill="none" stroke="#69459B" stroke-miterlimit="10" opacity=".2"/><circle cx="321.239" cy="225.256" r="14.472" fill="none" stroke="#69459B" stroke-miterlimit="10" opacity=".2"/><circle cx="344.31" cy="82.412" r="14.472" fill="none" stroke="#69459B" stroke-miterlimit="10" opacity=".2"/><circle cx="580.782" cy="73.412" r="14.472" fill="none" stroke="#69459B" stroke-miterlimit="10" opacity=".2"/><circle cx="547.782" cy="154.412" r="14.472" fill="none" stroke="#69459B" stroke-miterlimit="10" opacity=".2"/><circle cx="460.782" cy="52.412" r="14.472" fill="none" stroke="#69459B" stroke-miterlimit="10" opacity=".2"/><circle cx="799.782" cy="70.412" r="14.472" fill="none" stroke="#69459B" stroke-miterlimit="10" opacity=".2"/><circle cx="709.782" cy="181.412" r="14.472" fill="none" stroke="#69459B" stroke-miterlimit="10" opacity=".2"/><circle cx="688.782" cy="112.412" r="14.472" fill="none" stroke="#69459B" stroke-miterlimit="10" opacity=".2"/><circle cx="985.782" cy="172.412" r="14.472" fill="none" stroke="#69459B" stroke-miterlimit="10" opacity=".2"/><circle cx="909.725" cy="205.412" r="14.472" fill="none" stroke="#69459B" stroke-miterlimit="10" opacity=".2"/><circle cx="841.782" cy="244.412" r="14.472" fill="none" stroke="#69459B" stroke-miterlimit="10" opacity=".2"/><circle cx="799.782" cy="163.412" r="14.472" fill="none" stroke="#69459B" stroke-miterlimit="10" opacity=".2"/><circle cx="889.782" cy="115.412" r="14.472" fill="none" stroke="#69459B" stroke-miterlimit="10" opacity=".2"/><circle cx="919.782" cy="17.998" r="14.472" fill="none" stroke="#69459B" stroke-miterlimit="10" opacity=".2"/><circle cx="1033.782" cy="61.412" r="14.472" fill="none" stroke="#69459B" stroke-miterlimit="10" opacity=".2"/><circle cx="1066.782" cy="133.412" r="14.472" fill="none" stroke="#69459B" stroke-miterlimit="10" opacity=".2"/><circle cx="1123.782" cy="157.412" r="14.472" fill="none" stroke="#69459B" stroke-miterlimit="10" opacity=".2"/><circle cx="1066.782" cy="316.412" r="14.472" fill="none" stroke="#69459B" stroke-miterlimit="10" opacity=".2"/><circle cx="1123.782" cy="389.347" r="14.472" fill="none" stroke="#69459B" stroke-miterlimit="10" opacity=".2"/><circle cx="940.782" cy="328.412" r="14.472" fill="none" stroke="#69459B" stroke-miterlimit="10" opacity=".2"/><circle cx="1000.253" cy="259.94" r="14.472" fill="none" stroke="#69459B" stroke-miterlimit="10" opacity=".2"/><circle cx="1168.782" cy="301.94" r="14.472" fill="none" stroke="#69459B" stroke-miterlimit="10" opacity=".2"/><circle cx="1090.782" cy="235.412" r="14.472" fill="none" stroke="#69459B" stroke-miterlimit="10" opacity=".2"/><circle cx="1138.254" cy="487.649" r="14.472" fill="none" stroke="#69459B" stroke-miterlimit="10" opacity=".2"/><circle cx="1084.782" cy="553.412" r="14.472" fill="none" stroke="#69459B" stroke-miterlimit="10" opacity=".2"/><circle cx="1066.782" cy="700.94" r="14.472" fill="none" stroke="#69459B" stroke-miterlimit="10" opacity=".2"/><circle cx="46.782" cy="166.412" r="14.472" fill="none" stroke="#69459B" stroke-miterlimit="10" opacity=".2"/><circle cx="73.782" cy="274.412" r="14.472" fill="none" stroke="#69459B" stroke-miterlimit="10" opacity=".2"/><circle cx="61.782" cy="394.412" r="14.472" fill="none" stroke="#69459B" stroke-miterlimit="10" opacity=".2"/><circle cx="52.782" cy="595.412" r="14.472" fill="none" stroke="#69459B" stroke-miterlimit="10" opacity=".2"/><circle cx="136.782" cy="547.412" r="14.472" fill="none" stroke="#69459B" stroke-miterlimit="10" opacity=".2"/><circle cx="73.253" cy="517.94" r="14.472" fill="none" stroke="#69459B" stroke-miterlimit="10" opacity=".2"/><circle cx="110.31" cy="669.793" r="14.472" fill="none" stroke="#69459B" stroke-miterlimit="10" opacity=".2"/><circle cx="58.782" cy="838.412" r="14.472" fill="none" stroke="#69459B" stroke-miterlimit="10" opacity=".2"/><circle cx="173.34" cy="871.412" r="14.472" fill="none" stroke="#69459B" stroke-miterlimit="10" opacity=".2"/><circle cx="131.31" cy="772.44" r="14.472" fill="none" stroke="#69459B" stroke-miterlimit="10" opacity=".2"/><circle cx="467.258" cy="820.412" r="14.472" fill="none" stroke="#69459B" stroke-miterlimit="10" opacity=".2"/><circle cx="367.087" cy="810.884" r="14.472" fill="none" stroke="#69459B" stroke-miterlimit="10" opacity=".2"/><circle cx="269.145" cy="847.94" r="14.472" fill="none" stroke="#69459B" stroke-miterlimit="10" opacity=".2"/><circle cx="396.03" cy="876.884" r="14.472" fill="none" stroke="#69459B" stroke-miterlimit="10" opacity=".2"/><circle cx="742.782" cy="811.412" r="14.472" fill="none" stroke="#69459B" stroke-miterlimit="10" opacity=".2"/><circle cx="809.31" cy="891.354" r="14.472" fill="none" stroke="#69459B" stroke-miterlimit="10" opacity=".2"/><circle cx="889.253" cy="833.47" r="14.472" fill="none" stroke="#69459B" stroke-miterlimit="10" opacity=".2"/><circle cx="970.782" cy="871.412" r="14.472" fill="none" stroke="#69459B" stroke-miterlimit="10" opacity=".2"/><circle cx="991.782" cy="796.412" r="14.472" fill="none" stroke="#69459B" stroke-miterlimit="10" opacity=".2"/><circle cx="1114.782" cy="862.412" r="14.472" fill="none" stroke="#69459B" stroke-miterlimit="10" opacity=".2"/><circle cx="1150.782" cy="625.633" r="14.472" fill="none" stroke="#69459B" stroke-miterlimit="10" opacity=".2"/><circle cx="1048.782" cy="424.412" r="14.472" fill="none" stroke="#69459B" stroke-miterlimit="10" opacity=".2"/><circle cx="240.202" cy="32.469" r="14.472" fill="none" stroke="#69459B" stroke-miterlimit="10" opacity=".2"/><circle cx="44.31" cy="735.383" r="14.472" fill="none" stroke="#69459B" stroke-miterlimit="10" opacity=".2"/><circle cx="381.559" cy="259.94" r="14.472" fill="none" stroke="#69459B" stroke-miterlimit="10" opacity=".2"/><circle cx="368.136" cy="166.94" r="14.472" fill="none" stroke="#69459B" stroke-miterlimit="10" opacity=".2"/><circle cx="29.838" cy="32.469" r="14.472" fill="none" stroke="#69459B" stroke-miterlimit="10" opacity=".2"/><circle cx="240.202" cy="412.508" r="14.472" fill="none" stroke="#69459B" stroke-miterlimit="10" opacity=".2"/><circle cx="1090.781" cy="772.44" r="14.472" fill="none" stroke="#69459B" stroke-miterlimit="10" opacity=".2"/><circle cx="1168.781" cy="757.97" r="14.472" fill="none" stroke="#69459B" stroke-miterlimit="10" opacity=".2"/><circle cx="1048.578" cy="905.825" r="14.472" fill="none" stroke="#69459B" stroke-miterlimit="10" opacity=".2"/><circle cx="1152.726" cy="37.94" r="14.472" fill="none" stroke="#69459B" stroke-miterlimit="10" opacity=".2"/><circle cx="654.439" cy="17.998" r="14.472" fill="none" stroke="#69459B" stroke-miterlimit="10" opacity=".2"/><line x1="43.237" x2="111.613" y1="37.94" y2="70.411" fill="none" stroke="#69459B" stroke-miterlimit="10" opacity=".2"/><line x1="131.31" x2="61.253" y1="166.412" y2="166.412" fill="none" stroke="#69459B" stroke-miterlimit="10" opacity=".2"/><line x1="46.782" x2="73.782" y1="180.882" y2="259.94" fill="none" stroke="#69459B" stroke-miterlimit="10" opacity=".2"/><line x1="145.782" x2="160.252" y1="180.882" y2="253.939" fill="none" stroke="#69459B" stroke-miterlimit="10" opacity=".2"/><line x1="231.124" x2="145.782" y1="43.735" y2="151.94" fill="none" stroke="#69459B" stroke-miterlimit="10" opacity=".2"/><line x1="73.782" x2="139.253" y1="386.319" y2="352.94" fill="none" stroke="#69459B" stroke-miterlimit="10" opacity=".2"/><line x1="87.725" x2="124.782" y1="517.94" y2="539.32" fill="none" stroke="#69459B" stroke-miterlimit="10" opacity=".2"/><line x1="59.763" x2="101.761" y1="608.088" y2="658.117" fill="none" stroke="#69459B" stroke-miterlimit="10" opacity=".2"/><line x1="54.93" x2="99.438" y1="725.556" y2="679.338" fill="none" stroke="#69459B" stroke-miterlimit="10" opacity=".2"/><line x1="56.778" x2="116.838" y1="742.729" y2="767" fill="none" stroke="#69459B" stroke-miterlimit="10" opacity=".2"/><line x1="44.31" x2="54.93" y1="749.854" y2="824.462" fill="none" stroke="#69459B" stroke-miterlimit="10" opacity=".2"/><line x1="140.315" x2="168.879" y1="783.765" y2="857.644" fill="none" stroke="#69459B" stroke-miterlimit="10" opacity=".2"/><line x1="158.868" x2="70.806" y1="871.412" y2="846.466" fill="none" stroke="#69459B" stroke-miterlimit="10" opacity=".2"/><line x1="153.725" x2="158.869" y1="367.411" y2="433.101" fill="none" stroke="#69459B" stroke-miterlimit="10" opacity=".2"/><line x1="72.775" x2="145.782" y1="403.817" y2="441.393" fill="none" stroke="#69459B" stroke-miterlimit="10" opacity=".2"/><line x1="61.782" x2="73.253" y1="408.882" y2="503.469" fill="none" stroke="#69459B" stroke-miterlimit="10" opacity=".2"/><line x1="142.457" x2="156.297" y1="534.096" y2="462.044" fill="none" stroke="#69459B" stroke-miterlimit="10" opacity=".2"/><line x1="142.457" x2="167.603" y1="560.727" y2="624.995" fill="none" stroke="#69459B" stroke-miterlimit="10" opacity=".2"/><line x1="124.397" x2="160.329" y1="666.482" y2="651.285" fill="none" stroke="#69459B" stroke-miterlimit="10" opacity=".2"/><line x1="67.253" x2="54.93" y1="531.108" y2="581.099" fill="none" stroke="#69459B" stroke-miterlimit="10" opacity=".2"/><line x1="257.815" x2="187.812" y1="856.939" y2="871.412" fill="none" stroke="#69459B" stroke-miterlimit="10" opacity=".2"/><line x1="262.896" x2="252.712" y1="834.883" y2="742.729" fill="none" stroke="#69459B" stroke-miterlimit="10" opacity=".2"/><line x1="142.457" x2="228.516" y1="763.21" y2="730.744" fill="none" stroke="#69459B" stroke-miterlimit="10" opacity=".2"/><line x1="283.616" x2="351.835" y1="847.94" y2="816" fill="none" stroke="#69459B" stroke-miterlimit="10" opacity=".2"/><line x1="377.713" x2="389.101" y1="820.704" y2="864.176" fill="none" stroke="#69459B" stroke-miterlimit="10" opacity=".2"/><line x1="410.502" x2="458.551" y1="871.411" y2="831.971" fill="none" stroke="#69459B" stroke-miterlimit="10" opacity=".2"/><line x1="279.88" x2="381.559" y1="857.644" y2="876.884" fill="none" stroke="#69459B" stroke-miterlimit="10" opacity=".2"/><line x1="194" x2="233.388" y1="658.884" y2="702.447" fill="none" stroke="#69459B" stroke-miterlimit="10" opacity=".2"/><line x1="171.956" x2="227.825" y1="441.393" y2="420.012" fill="none" stroke="#69459B" stroke-miterlimit="10" opacity=".2"/><line x1="171.956" x2="227.825" y1="453.753" y2="479.5" fill="none" stroke="#69459B" stroke-miterlimit="10" opacity=".2"/><line x1="150.652" x2="233.388" y1="551.543" y2="581.099" fill="none" stroke="#69459B" stroke-miterlimit="10" opacity=".2"/><line x1="254.674" x2="293.333" y1="412.508" y2="422.605" fill="none" stroke="#69459B" stroke-miterlimit="10" opacity=".2"/><line x1="250.632" x2="240.202" y1="324.119" y2="398.037" fill="none" stroke="#69459B" stroke-miterlimit="10" opacity=".2"/><line x1="160.252" x2="153.725" y1="282.883" y2="338.469" fill="none" stroke="#69459B" stroke-miterlimit="10" opacity=".2"/><line x1="73.782" x2="61.782" y1="288.882" y2="379.94" fill="none" stroke="#69459B" stroke-miterlimit="10" opacity=".2"/><line x1="145.782" x2="88.253" y1="268.411" y2="274.412" fill="none" stroke="#69459B" stroke-miterlimit="10" opacity=".2"/><line x1="128.114" x2="138.543" y1="90.493" y2="153.882" fill="none" stroke="#69459B" stroke-miterlimit="10" opacity=".2"/><line x1="29.838" x2="43.237" y1="46.94" y2="151.94" fill="none" stroke="#69459B" stroke-miterlimit="10" opacity=".2"/><line x1="136.512" x2="226.804" y1="67.94" y2="37.94" fill="none" stroke="#69459B" stroke-miterlimit="10" opacity=".2"/><line x1="337.472" x2="269.145" y1="334.411" y2="310.224" fill="none" stroke="#69459B" stroke-miterlimit="10" opacity=".2"/><line x1="174.411" x2="241.784" y1="271.411" y2="303.646" fill="none" stroke="#69459B" stroke-miterlimit="10" opacity=".2"/><line x1="254.673" x2="245.417" y1="295.752" y2="239.727" fill="none" stroke="#69459B" stroke-miterlimit="10" opacity=".2"/><line x1="158.869" x2="228.044" y1="172.591" y2="217.411" fill="none" stroke="#69459B" stroke-miterlimit="10" opacity=".2"/><line x1="240.203" x2="240.202" y1="210.784" y2="147.882" fill="none" stroke="#69459B" stroke-miterlimit="10" opacity=".2"/><line x1="158.869" x2="226.804" y1="160.229" y2="138.882" fill="none" stroke="#69459B" stroke-miterlimit="10" opacity=".2"/><line x1="240.202" x2="240.202" y1="118.94" y2="46.94" fill="none" stroke="#69459B" stroke-miterlimit="10" opacity=".2"/><line x1="253.601" x2="331.142" y1="37.94" y2="76.411" fill="none" stroke="#69459B" stroke-miterlimit="10" opacity=".2"/><line x1="253.601" x2="332.58" y1="127.94" y2="90.882" fill="none" stroke="#69459B" stroke-miterlimit="10" opacity=".2"/><line x1="254.499" x2="306.768" y1="227.5" y2="225.256" fill="none" stroke="#69459B" stroke-miterlimit="10" opacity=".2"/><line x1="332.58" x2="360.661" y1="216.271" y2="179.333" fill="none" stroke="#69459B" stroke-miterlimit="10" opacity=".2"/><line x1="368.136" x2="350.083" y1="152.469" y2="95.683" fill="none" stroke="#69459B" stroke-miterlimit="10" opacity=".2"/><line x1="250.632" x2="311.264" y1="143.438" y2="214.777" fill="none" stroke="#69459B" stroke-miterlimit="10" opacity=".2"/><line x1="334.332" x2="369.537" y1="231.424" y2="251.882" fill="none" stroke="#69459B" stroke-miterlimit="10" opacity=".2"/><line x1="375.065" x2="364.59" y1="272.872" y2="320.652" fill="none" stroke="#69459B" stroke-miterlimit="10" opacity=".2"/><line x1="381.559" x2="425.31" y1="161.531" y2="143.438" fill="none" stroke="#69459B" stroke-miterlimit="10" opacity=".2"/><line x1="444" x2="455.044" y1="124.94" y2="65.698" fill="none" stroke="#69459B" stroke-miterlimit="10" opacity=".2"/><line x1="357.479" x2="446.31" y1="76.411" y2="52.412" fill="none" stroke="#69459B" stroke-miterlimit="10" opacity=".2"/><line x1="372.011" x2="381.559" y1="180.882" y2="245.469" fill="none" stroke="#69459B" stroke-miterlimit="10" opacity=".2"/><line x1="392.022" x2="440.753" y1="249.948" y2="214.777" fill="none" stroke="#69459B" stroke-miterlimit="10" opacity=".2"/><line x1="444" x2="451.782" y1="152.484" y2="190.94" fill="none" stroke="#69459B" stroke-miterlimit="10" opacity=".2"/><line x1="459.874" x2="466.253" y1="217.411" y2="251.882" fill="none" stroke="#69459B" stroke-miterlimit="10" opacity=".2"/><line x1="393.746" x2="455.044" y1="267.739" y2="269.318" fill="none" stroke="#69459B" stroke-miterlimit="10" opacity=".2"/><line x1="351.835" x2="367.087" y1="748.416" y2="796.411" fill="none" stroke="#69459B" stroke-miterlimit="10" opacity=".2"/><line x1="450.392" x2="467.258" y1="754.864" y2="805.939" fill="none" stroke="#69459B" stroke-miterlimit="10" opacity=".2"/><line x1="381.559" x2="452.787" y1="810.884" y2="820.412" fill="none" stroke="#69459B" stroke-miterlimit="10" opacity=".2"/><line x1="344.31" x2="346.621" y1="67.94" y2="0" fill="none" stroke="#69459B" stroke-miterlimit="10" opacity=".2"/><line x1="240.202" x2="264" y1="17.998" y2="0" fill="none" stroke="#69459B" stroke-miterlimit="10" opacity=".2"/><line x1="460.782" x2="430.125" y1="37.94" y2="0" fill="none" stroke="#69459B" stroke-miterlimit="10" opacity=".2"/><line x1="36.538" x2="61.782" y1="19.642" y2="0" fill="none" stroke="#69459B" stroke-miterlimit="10" opacity=".2"/><line x1="15.367" x2="-7" y1="32.469" y2="32.469" fill="none" stroke="#69459B" stroke-miterlimit="10" opacity=".2"/><line x1="559.11" x2="615.964" y1="163.411" y2="213.176" fill="none" stroke="#69459B" stroke-miterlimit="10" opacity=".2"/><line x1="698.896" x2="649.867" y1="190.94" y2="219.882" fill="none" stroke="#69459B" stroke-miterlimit="10" opacity=".2"/><line x1="535.184" x2="464.091" y1="161.531" y2="197.802" fill="none" stroke="#69459B" stroke-miterlimit="10" opacity=".2"/><line x1="533.31" x2="454.253" y1="148.94" y2="139.412" fill="none" stroke="#69459B" stroke-miterlimit="10" opacity=".2"/><line x1="475.253" x2="566.311" y1="52.412" y2="70.411" fill="none" stroke="#69459B" stroke-miterlimit="10" opacity=".2"/><line x1="571.964" x2="553.204" y1="84.882" y2="140.994" fill="none" stroke="#69459B" stroke-miterlimit="10" opacity=".2"/><line x1="592.11" x2="642.85" y1="64.411" y2="26.666" fill="none" stroke="#69459B" stroke-miterlimit="10" opacity=".2"/><line x1="580.781" x2="571.964" y1="58.94" y2="0" fill="none" stroke="#69459B" stroke-miterlimit="10" opacity=".2"/><line x1="659.431" x2="679.964" y1="31.585" y2="100.94" fill="none" stroke="#69459B" stroke-miterlimit="10" opacity=".2"/><line x1="742.781" x2="765.303" y1="796.939" y2="728.887" fill="none" stroke="#69459B" stroke-miterlimit="10" opacity=".2"/><line x1="751.952" x2="799.104" y1="822.606" y2="881.094" fill="none" stroke="#69459B" stroke-miterlimit="10" opacity=".2"/><line x1="823.781" x2="878.668" y1="885.883" y2="843.333" fill="none" stroke="#69459B" stroke-miterlimit="10" opacity=".2"/><line x1="889.252" x2="881.979" y1="818.997" y2="750.576" fill="none" stroke="#69459B" stroke-miterlimit="10" opacity=".2"/><line x1="874.781" x2="756.622" y1="833.47" y2="815.648" fill="none" stroke="#69459B" stroke-miterlimit="10" opacity=".2"/><line x1="903.156" x2="978.439" y1="829.456" y2="802.023" fill="none" stroke="#69459B" stroke-miterlimit="10" opacity=".2"/><line x1="989.465" x2="977.311" y1="810.696" y2="856.939" fill="none" stroke="#69459B" stroke-miterlimit="10" opacity=".2"/><line x1="958.009" x2="901.802" y1="864.607" y2="840.674" fill="none" stroke="#69459B" stroke-miterlimit="10" opacity=".2"/><line x1="983.388" x2="1035.274" y1="876.883" y2="900.124" fill="none" stroke="#69459B" stroke-miterlimit="10" opacity=".2"/><line x1="970.782" x2="985.254" y1="733.807" y2="783.496" fill="none" stroke="#69459B" stroke-miterlimit="10" opacity=".2"/><line x1="701.537" x2="785.311" y1="105.571" y2="73.411" fill="none" stroke="#69459B" stroke-miterlimit="10" opacity=".2"/><line x1="799.781" x2="799.781" y1="84.882" y2="148.94" fill="none" stroke="#69459B" stroke-miterlimit="10" opacity=".2"/><line x1="723.818" x2="786.384" y1="177.882" y2="168.882" fill="none" stroke="#69459B" stroke-miterlimit="10" opacity=".2"/><line x1="688.781" x2="703.254" y1="126.882" y2="168.497" fill="none" stroke="#69459B" stroke-miterlimit="10" opacity=".2"/><line x1="562.253" x2="674.311" y1="154.412" y2="116.911" fill="none" stroke="#69459B" stroke-miterlimit="10" opacity=".2"/><line x1="788.453" x2="667.838" y1="61.411" y2="23.469" fill="none" stroke="#69459B" stroke-miterlimit="10" opacity=".2"/><line x1="32.31" x2="0" y1="166.412" y2="160.229" fill="none" stroke="#69459B" stroke-miterlimit="10" opacity=".2"/><line x1="59.31" x2="0" y1="274.412" y2="288.882" fill="none" stroke="#69459B" stroke-miterlimit="10" opacity=".2"/><line x1="47.31" x2="0" y1="394.412" y2="369.63" fill="none" stroke="#69459B" stroke-miterlimit="10" opacity=".2"/><line x1="58.782" x2="0" y1="517.94" y2="517.94" fill="none" stroke="#69459B" stroke-miterlimit="10" opacity=".2"/><line x1="38.31" x2="0" y1="595.412" y2="574" fill="none" stroke="#69459B" stroke-miterlimit="10" opacity=".2"/><line x1="29.838" x2="0" y1="735.383" y2="707" fill="none" stroke="#69459B" stroke-miterlimit="10" opacity=".2"/><line x1="44.31" x2="0" y1="838.412" y2="871.411" fill="none" stroke="#69459B" stroke-miterlimit="10" opacity=".2"/><line x1="812.325" x2="907.148" y1="63.196" y2="25.055" fill="none" stroke="#69459B" stroke-miterlimit="10" opacity=".2"/><line x1="792.696" x2="750.997" y1="176.028" y2="242.505" fill="none" stroke="#69459B" stroke-miterlimit="10" opacity=".2"/><line x1="841.781" x2="832" y1="258.882" y2="319.976" fill="none" stroke="#69459B" stroke-miterlimit="10" opacity=".2"/><line x1="808.79" x2="834.46" y1="174.733" y2="231.93" fill="none" stroke="#69459B" stroke-miterlimit="10" opacity=".2"/><line x1="853.11" x2="897.515" y1="235.411" y2="213.176" fill="none" stroke="#69459B" stroke-miterlimit="10" opacity=".2"/><line x1="895.253" x2="905.311" y1="128.809" y2="191.627" fill="none" stroke="#69459B" stroke-miterlimit="10" opacity=".2"/><line x1="877.125" x2="812.325" y1="122.428" y2="156.196" fill="none" stroke="#69459B" stroke-miterlimit="10" opacity=".2"/><line x1="812.325" x2="877.125" y1="77.626" y2="105.571" fill="none" stroke="#69459B" stroke-miterlimit="10" opacity=".2"/><line x1="917" x2="895.253" y1="31.585" y2="102.013" fill="none" stroke="#69459B" stroke-miterlimit="10" opacity=".2"/><line x1="799.781" x2="792.696" y1="55.94" y2="0" fill="none" stroke="#69459B" stroke-miterlimit="10" opacity=".2"/><line x1="659.431" x2="664.5" y1="4.41" y2="0" fill="none" stroke="#69459B" stroke-miterlimit="10" opacity=".2"/><line x1="919.781" x2="917" y1="3.526" y2="0" fill="none" stroke="#69459B" stroke-miterlimit="10" opacity=".2"/><line x1="936.9" x2="928.844" y1="342.352" y2="361.485" fill="none" stroke="#69459B" stroke-miterlimit="10" opacity=".2"/><line x1="932.69" x2="853.11" y1="316.411" y2="253.412" fill="none" stroke="#69459B" stroke-miterlimit="10" opacity=".2"/><line x1="992.801" x2="948.873" y1="272.347" y2="316.411" fill="none" stroke="#69459B" stroke-miterlimit="10" opacity=".2"/><line x1="921.935" x2="987.339" y1="213.176" y2="253.412" fill="none" stroke="#69459B" stroke-miterlimit="10" opacity=".2"/><line x1="902.439" x2="974.454" y1="122.428" y2="163.411" fill="none" stroke="#69459B" stroke-miterlimit="10" opacity=".2"/><line x1="974.454" x2="923.298" y1="181.412" y2="200.383" fill="none" stroke="#69459B" stroke-miterlimit="10" opacity=".2"/><line x1="985.781" x2="997.852" y1="186.882" y2="245.67" fill="none" stroke="#69459B" stroke-miterlimit="10" opacity=".2"/><line x1="1071.439" x2="987.379" y1="559.024" y2="578.062" fill="none" stroke="#69459B" stroke-miterlimit="10" opacity=".2"/><line x1="1059.312" x2="1040.241" y1="688.543" y2="649.855" fill="none" stroke="#69459B" stroke-miterlimit="10" opacity=".2"/><line x1="1002.694" x2="1056.213" y1="786.911" y2="710.82" fill="none" stroke="#69459B" stroke-miterlimit="10" opacity=".2"/><line x1="1073.832" x2="1090.782" y1="713.577" y2="757.969" fill="none" stroke="#69459B" stroke-miterlimit="10" opacity=".2"/><line x1="1077.616" x2="1006.254" y1="778.447" y2="796.412" fill="none" stroke="#69459B" stroke-miterlimit="10" opacity=".2"/><line x1="1005.125" x2="1102.838" y1="802.023" y2="854.24" fill="none" stroke="#69459B" stroke-miterlimit="10" opacity=".2"/><line x1="1105.253" x2="1061.883" y1="873.298" y2="900.124" fill="none" stroke="#69459B" stroke-miterlimit="10" opacity=".2"/><line x1="1098.332" x2="1111.949" y1="784.787" y2="848.219" fill="none" stroke="#69459B" stroke-miterlimit="10" opacity=".2"/><line x1="1124.672" x2="1161.728" y1="851.85" y2="770.604" fill="none" stroke="#69459B" stroke-miterlimit="10" opacity=".2"/><line x1="1154.635" x2="1105.253" y1="754.916" y2="772.44" fill="none" stroke="#69459B" stroke-miterlimit="10" opacity=".2"/><line x1="1081.078" x2="1157.533" y1="703.192" y2="748.865" fill="none" stroke="#69459B" stroke-miterlimit="10" opacity=".2"/><line x1="1048.578" x2="1136.311" y1="632.007" y2="625.633" fill="none" stroke="#69459B" stroke-miterlimit="10" opacity=".2"/><line x1="1077.616" x2="1143.199" y1="691.35" y2="637.959" fill="none" stroke="#69459B" stroke-miterlimit="10" opacity=".2"/><line x1="1181.223" x2="1192" y1="750.576" y2="739.5" fill="none" stroke="#69459B" stroke-miterlimit="10" opacity=".2"/><line x1="1165.254" x2="1192" y1="625.633" y2="632.007" fill="none" stroke="#69459B" stroke-miterlimit="10" opacity=".2"/><line x1="1126.111" x2="1192" y1="871.411" y2="881.094" fill="none" stroke="#69459B" stroke-miterlimit="10" opacity=".2"/><line x1="1095.169" x2="1129.108" y1="543.339" y2="498.862" fill="none" stroke="#69459B" stroke-miterlimit="10" opacity=".2"/><line x1="1150.782" x2="1192" y1="494.889" y2="508.5" fill="none" stroke="#69459B" stroke-miterlimit="10" opacity=".2"/><line x1="1095.169" x2="1143.199" y1="563.483" y2="613.306" fill="none" stroke="#69459B" stroke-miterlimit="10" opacity=".2"/><line x1="1158.364" x2="1192" y1="613.306" y2="555.5" fill="none" stroke="#69459B" stroke-miterlimit="10" opacity=".2"/><line x1="1052.224" x2="1077.616" y1="438.467" y2="540.84" fill="none" stroke="#69459B" stroke-miterlimit="10" opacity=".2"/><line x1="1038.963" x2="992.361" y1="435.039" y2="487.648" fill="none" stroke="#69459B" stroke-miterlimit="10" opacity=".2"/><line x1="944.896" x2="1035.477" y1="383.635" y2="418.715" fill="none" stroke="#69459B" stroke-miterlimit="10" opacity=".2"/><line x1="955.254" x2="1052.311" y1="328.412" y2="316.412" fill="none" stroke="#69459B" stroke-miterlimit="10" opacity=".2"/><line x1="1063.254" x2="1052.224" y1="330.447" y2="410.355" fill="none" stroke="#69459B" stroke-miterlimit="10" opacity=".2"/><line x1="1061.943" x2="1129.108" y1="430.427" y2="476.434" fill="none" stroke="#69459B" stroke-miterlimit="10" opacity=".2"/><line x1="1061.943" x2="1110.071" y1="418.395" y2="393.976" fill="none" stroke="#69459B" stroke-miterlimit="10" opacity=".2"/><line x1="997.852" x2="1054.617" y1="164.428" y2="141.246" fill="none" stroke="#69459B" stroke-miterlimit="10" opacity=".2"/><line x1="1020.351" x2="902.439" y1="66.799" y2="108.395" fill="none" stroke="#69459B" stroke-miterlimit="10" opacity=".2"/><line x1="1041.873" x2="1060.254" y1="73.411" y2="120.497" fill="none" stroke="#69459B" stroke-miterlimit="10" opacity=".2"/><line x1="1076.311" x2="1141.397" y1="122.524" y2="46.94" fill="none" stroke="#69459B" stroke-miterlimit="10" opacity=".2"/><line x1="1138.254" x2="1048.049" y1="37.94" y2="58.991" fill="none" stroke="#69459B" stroke-miterlimit="10" opacity=".2"/><line x1="1022.454" x2="932.69" y1="52.411" y2="23.469" fill="none" stroke="#69459B" stroke-miterlimit="10" opacity=".2"/><line x1="1033.781" x2="1029.5" y1="46.94" y2="0" fill="none" stroke="#69459B" stroke-miterlimit="10" opacity=".2"/><line x1="1078.947" x2="1110.053" y1="141.246" y2="152.837" fill="none" stroke="#69459B" stroke-miterlimit="10" opacity=".2"/><line x1="997.852" x2="1077.384" y1="177.882" y2="229.94" fill="none" stroke="#69459B" stroke-miterlimit="10" opacity=".2"/><line x1="1098.216" x2="1118.827" y1="222.994" y2="171.011" fill="none" stroke="#69459B" stroke-miterlimit="10" opacity=".2"/><line x1="1014.025" x2="1077.384" y1="255.492" y2="240.882" fill="none" stroke="#69459B" stroke-miterlimit="10" opacity=".2"/><line x1="1087.5" x2="1074.422" y1="249.882" y2="304.122" fill="none" stroke="#69459B" stroke-miterlimit="10" opacity=".2"/><line x1="1081.254" x2="1154.311" y1="316.412" y2="301.94" fill="none" stroke="#69459B" stroke-miterlimit="10" opacity=".2"/><line x1="1161.512" x2="1102.11" y1="289.429" y2="244.411" fill="none" stroke="#69459B" stroke-miterlimit="10" opacity=".2"/><line x1="1161.512" x2="1131.811" y1="314.451" y2="377.306" fill="none" stroke="#69459B" stroke-miterlimit="10" opacity=".2"/><line x1="1129.108" x2="1138.253" y1="402.801" y2="473.177" fill="none" stroke="#69459B" stroke-miterlimit="10" opacity=".2"/><line x1="1138.254" x2="1192" y1="389.347" y2="374.875" fill="none" stroke="#69459B" stroke-miterlimit="10" opacity=".2"/><line x1="1183.254" x2="1192" y1="301.94" y2="304.122" fill="none" stroke="#69459B" stroke-miterlimit="10" opacity=".2"/><line x1="1138.254" x2="1192" y1="157.412" y2="171.882" fill="none" stroke="#69459B" stroke-miterlimit="10" opacity=".2"/><line x1="1166.974" x2="1192" y1="35.416" y2="0" fill="none" stroke="#69459B" stroke-miterlimit="10" opacity=".2"/><line x1="124.782" x2="128.114" y1="61.94" y2="0" fill="none" stroke="#69459B" stroke-miterlimit="10" opacity=".2"/><line x1="267.562" x2="369.371" y1="303.646" y2="267.739" fill="none" stroke="#69459B" stroke-miterlimit="10" opacity=".2"/><line x1="165.692" x2="228.63" y1="361.078" y2="403.817" fill="none" stroke="#69459B" stroke-miterlimit="10" opacity=".2"/><line x1="165.692" x2="241.784" y1="344.802" y2="316.803" fill="none" stroke="#69459B" stroke-miterlimit="10" opacity=".2"/><line x1="251.774" x2="337.472" y1="403.817" y2="352.94" fill="none" stroke="#69459B" stroke-miterlimit="10" opacity=".2"/><line x1="110.31" x2="131.31" y1="684.264" y2="757.968" fill="none" stroke="#69459B" stroke-miterlimit="10" opacity=".2"/><line x1="131.107" x2="110.31" y1="560.727" y2="655.32" fill="none" stroke="#69459B" stroke-miterlimit="10" opacity=".2"/><line x1="124.397" x2="65.93" y1="554.901" y2="589.365" fill="none" stroke="#69459B" stroke-miterlimit="10" opacity=".2"/><line x1="47.484" x2="41.476" y1="608.877" y2="721.191" fill="none" stroke="#69459B" stroke-miterlimit="10" opacity=".2"/><line x1="180.678" x2="237.61" y1="858.939" y2="740.012" fill="none" stroke="#69459B" stroke-miterlimit="10" opacity=".2"/><line x1="332.569" x2="275.393" y1="746.977" y2="834.883" fill="none" stroke="#69459B" stroke-miterlimit="10" opacity=".2"/><line x1="427.057" x2="377.713" y1="753.472" y2="801.062" fill="none" stroke="#69459B" stroke-miterlimit="10" opacity=".2"/><line x1="58.782" x2="150.652" y1="174.503" y2="257.587" fill="none" stroke="#69459B" stroke-miterlimit="10" opacity=".2"/><line x1="113.052" x2="54.93" y1="84.882" y2="154.451" fill="none" stroke="#69459B" stroke-miterlimit="10" opacity=".2"/><line x1="144.397" x2="82.842" y1="341.879" y2="285.692" fill="none" stroke="#69459B" stroke-miterlimit="10" opacity=".2"/><line x1="788.551" x2="879.695" y1="731.911" y2="822.606" fill="none" stroke="#69459B" stroke-miterlimit="10" opacity=".2"/><line x1="823.781" x2="957.143" y1="891.354" y2="876.252" fill="none" stroke="#69459B" stroke-miterlimit="10" opacity=".2"/><line x1="1154.31" x2="1168.782" y1="640.104" y2="743.497" fill="none" stroke="#69459B" stroke-miterlimit="10" opacity=".2"/><line x1="951.153" x2="1040.555" y1="338.499" y2="412.508" fill="none" stroke="#69459B" stroke-miterlimit="10" opacity=".2"/><line x1="827.311" x2="762.904" y1="248.187" y2="258.882" fill="none" stroke="#69459B" stroke-miterlimit="10" opacity=".2"/><line x1="926.311" x2="848.316" y1="328.412" y2="338.499" fill="none" stroke="#69459B" stroke-miterlimit="10" opacity=".2"/><line x1="713.747" x2="732.733" y1="195.328" y2="240.882" fill="none" stroke="#69459B" stroke-miterlimit="10" opacity=".2"/><line x1="544.467" x2="493.782" y1="168.497" y2="251.857" fill="none" stroke="#69459B" stroke-miterlimit="10" opacity=".2"/><line x1="468.874" x2="547.782" y1="64.411" y2="139.94" fill="none" stroke="#69459B" stroke-miterlimit="10" opacity=".2"/><line x1="638.408" x2="681.543" y1="209.267" y2="124.94" fill="none" stroke="#69459B" stroke-miterlimit="10" opacity=".2"/><line x1="814.254" x2="897.95" y1="163.412" y2="197.003" fill="none" stroke="#69459B" stroke-miterlimit="10" opacity=".2"/><line x1="990.187" x2="1025.69" y1="157.94" y2="73.411" fill="none" stroke="#69459B" stroke-miterlimit="10" opacity=".2"/><line x1="1152.727" x2="1123.781" y1="52.411" y2="142.94" fill="none" stroke="#69459B" stroke-miterlimit="10" opacity=".2"/><line x1="1105.254" x2="1192" y1="235.412" y2="220.94" fill="none" stroke="#69459B" stroke-miterlimit="10" opacity=".2"/><line x1="357.479" x2="427.894" y1="88.412" y2="131.162" fill="none" stroke="#69459B" stroke-miterlimit="10" opacity=".2"/><line x1="856.254" x2="985.781" y1="244.412" y2="259.94" fill="none" stroke="#69459B" stroke-miterlimit="10" opacity=".2"/><line x1="703.254" x2="788.453" y1="116.911" y2="156.196" fill="none" stroke="#69459B" stroke-miterlimit="10" opacity=".2"/><line x1="593.735" x2="674.945" y1="79.864" y2="108.164" fill="none" stroke="#69459B" stroke-miterlimit="10" opacity=".2"/><line x1="1011.29" x2="1057.738" y1="269.295" y2="305.117" fill="none" stroke="#69459B" stroke-miterlimit="10" opacity=".2"/><line x1="1076.311" x2="1115.753" y1="327.298" y2="377.306" fill="none" stroke="#69459B" stroke-miterlimit="10" opacity=".2"/></g></svg>