<svg xmlns="http://www.w3.org/2000/svg" xmlns:xlink="http://www.w3.org/1999/xlink" id="Layer_1" width="72" height="53.715" x="0" y="0" enable-background="new 0 0 72 53.715" version="1.1" viewBox="0 0 72 53.715" xml:space="preserve"><g opacity=".1"><polygon fill="#FFF" points="9.282 4.246 .675 -.098 .675 -.113 .675 -.113 .675 .061"/><polygon fill="#FFF" points="18.248 8.605 35.675 -.027 35.675 -.1 18.509 8.405 18.509 -.113 17.509 -.113 17.509 8.247"/><rect width=".002" height=".185" x="17.591" y="9.882" fill="#FFF"/><polygon fill="#FFF" points="8.867 5.157 16.89 9.206 17.04 9.131"/><polygon fill="#FFF" points="18.675 26.978 31.292 33.112 18.823 26.819 18.823 9.939 35.656 18.434 35.656 35.233 36.174 35.485 36.656 35.247 36.656 18.437 53.674 10.006 53.674 9.934 53.508 10.016 53.508 9.518 52.962 9.243 36.158 17.567 19.441 9.131 36.158 .85 40.922 3.167 36.172 .77 18.675 9.438"/><polygon fill="#FFF" points="54.01 27.766 37.293 36.047 37.368 36.085 54.086 27.803"/><polygon fill="#FFF" points="55.365 9.167 55.457 9.122 55.384 9.086 55.293 9.131"/><polygon fill="#FFF" points="53.508 8.174 41.334 2.254 53.508 8.398"/><polygon fill="#FFF" points="35.656 36.857 35.656 36.933 35.675 36.924 35.675 36.848"/><polygon fill="#FFF" points="54.674 26.819 54.822 26.895 54.822 10.014 54.674 9.939"/><polygon fill="#FFF" points="30.815 33.991 34.963 36.085 35.041 36.046"/><polygon fill="#FFF" points="18.675 9.437 18.675 9.438 36.172 .77 35.675 .519 35.675 -.027 18.248 8.605 19.31 9.122"/><polygon fill="#FFF" points="70.416 1.64 55.383 9.086 55.384 9.086"/><polygon fill="#FFF" points="36.675 -.097 36.675 -.011 41.334 2.254"/><polygon fill="#FFF" points="71.701 -.113 71.674 -.113 71.674 -.1"/><polygon fill="#FFF" points="53.13 9.16 53.056 9.122 53.112 9.094 40.922 3.167 52.962 9.243"/><polygon fill="#FFF" points="54.245 8.533 54.508 8.403 54.508 -.113 53.508 -.113 53.508 8.174"/><polygon fill="#FFF" points="36.675 -.097 36.675 -.113 36.465 -.113 36.675 -.011"/><polygon fill="#FFF" points="35.675 -.027 35.85 -.113 35.675 -.113 35.675 -.1"/><polygon fill="#FFF" points="53.508 8.398 41.334 2.254 36.675 -.011 36.675 .52 36.172 .77 40.922 3.167 53.112 9.094 54.245 8.533 53.508 8.174"/><rect width=".101" height=".001" x="55.287" y="9.108" fill="#FFF" transform="matrix(-0.8963 0.4434 -0.4434 -0.8963 108.9782 -7.2611)"/><polygon fill="#FFF" points="53.508 9.518 53.508 10.016 53.674 9.934 53.674 9.434 53.13 9.16 52.962 9.243"/><polygon fill="#FFF" points="35.675 .519 36.172 .77 36.675 .52 36.675 -.011 36.465 -.113 35.85 -.113 35.675 -.027"/><polygon fill="#FFF" points="17.509 8.247 9.282 4.246 17.509 8.398"/><polygon fill="#FFF" points="1.309 36.039 1.31 36.039 1.295 36.046 1.296 36.047 16.052 28.736"/><polygon fill="#FFF" points=".509 35.319 .509 18.437 17.509 10.015 17.509 9.518 16.89 9.206 .011 17.567 0 17.562 0 35.402 .172 35.486"/><polygon fill="#FFF" points=".011 .85 8.867 5.157 .173 .769 0 .854 0 .855"/><polygon fill="#FFF" points="17.675 9.934 17.675 26.816 9.824 30.706 17.823 26.745 17.823 9.861"/><polygon fill="#FFF" points="17.675 9.934 17.823 9.861 17.823 9.434 17.205 9.122 18.248 8.605 17.509 8.247 17.509 8.398 9.282 4.246 .675 .061 .675 .52 .173 .769 8.867 5.157 17.04 9.131 16.89 9.206 17.509 9.518 17.509 10.015 17.675 9.932"/><polygon fill="#FFF" points="18.509 9.521 18.509 10.023 18.007 9.77 17.823 9.861 17.823 26.745 18.007 26.653 18.675 26.978 18.675 9.438"/><polygon fill="#FFF" points="17.823 9.434 17.823 9.861 18.007 9.77 18.509 10.023 18.509 9.521 18.675 9.438 18.675 9.437 19.31 9.122 18.248 8.605 17.205 9.122"/><polygon fill="#FFF" points="71.039 36.047 62.808 32.044 70.888 36.122"/><rect width="19.157" height="0" x="53.512" y="4.152" fill="#FFF" transform="matrix(-0.8961 0.4439 -0.4439 -0.8961 121.4682 -20.1329)"/><rect width=".002" height=".185" x="71.59" y="36.798" fill="#FFF"/><polygon fill="#FFF" points="72 .855 72 .855 70.416 1.64"/><polygon fill="#FFF" points="54.822 9.437 54.822 10.014 71.508 18.434 71.508 35.163 72 35.402 72 17.562 55.365 9.167"/><polygon fill="#FFF" points="53.822 26.743 53.822 9.932 53.674 10.006 53.674 26.816"/><polygon fill="#FFF" points="54.822 27.05 63.274 31.159 54.822 26.895"/><polygon fill="#FFF" points="54.508 9.521 54.508 10.023 54.006 9.77 53.674 9.934 53.674 10.006 53.822 9.932 53.822 26.743 54.006 26.652 54.822 27.05 54.822 26.895 54.674 26.819 54.674 9.939 54.822 10.014 54.822 9.437 55.365 9.167 55.293 9.131"/><polygon fill="#FFF" points="71.701 -.113 71.674 -.1 71.674 -.099 54.508 8.405 54.508 8.403 54.245 8.533 55.383 9.086 70.416 1.64 72 .855 72 -.113"/><polygon fill="#FFF" points="53.13 9.16 53.188 9.131 53.112 9.094 53.056 9.122"/><polygon fill="#FFF" points="53.188 9.131 53.13 9.16 53.674 9.434 53.674 9.934 54.006 9.77 54.508 10.023 54.508 9.521 55.293 9.131 55.292 9.131 55.383 9.086 54.245 8.533 53.112 9.094"/><rect width=".002" height=".016" x="35.674" y="53.716" fill="#FFF"/><rect width=".001" height="16.791" x="35.675" y="36.924" fill="#FFF"/><polygon fill="#FFF" points="36.656 35.247 36.656 35.321 53.674 26.89 53.674 26.816"/><polygon fill="#FFF" points="71.508 35.314 71.508 35.163 63.274 31.159"/><polygon fill="#FFF" points="71.508 36.931 71.508 36.435 70.888 36.122 54.01 44.484 37.368 36.085 36.676 36.428 36.676 36.855 53.508 45.351 53.508 53.715 54.508 53.715 54.508 45.354"/><polygon fill="#FFF" points="71.674 53.715 72 53.715 72 36.688 71.674 36.851"/><polygon fill="#FFF" points="62.808 32.044 54.246 27.723 54.086 27.803"/><polygon fill="#FFF" points="53.674 26.89 36.656 35.321 36.656 35.247 36.174 35.485 37.311 36.038 36.676 36.353 36.676 36.428 37.368 36.085 37.293 36.047 54.01 27.766 54.086 27.803 54.246 27.723 53.674 27.435"/><rect width=".001" height=".076" x="35.675" y="36.847" fill="#FFF"/><polygon fill="#FFF" points="53.674 26.89 53.822 26.816 53.822 26.743 53.674 26.816"/><polygon fill="#FFF" points="71.508 35.314 63.274 31.159 54.822 27.05 54.822 27.438 54.246 27.723 62.808 32.044 71.039 36.047 70.888 36.122 71.508 36.435 71.508 36.931 71.674 36.849 71.674 36.851 72 36.688 72 35.402 71.508 35.163"/><polygon fill="#FFF" points="53.822 26.743 53.822 26.816 53.674 26.89 53.674 27.435 54.246 27.723 54.822 27.438 54.822 27.05 54.006 26.652"/><rect width=".002" height=".02" x="36.674" y="53.716" fill="#FFF"/><rect width=".001" height="16.859" x="36.675" y="36.855" fill="#FFF"/><polygon fill="#FFF" points="9.824 30.706 .509 35.319 .509 35.321"/><polygon fill="#FFF" points="18.011 27.767 30.815 33.991 18.248 27.649 16.052 28.736"/><polygon fill="#FFF" points="35.656 36.857 35.656 36.435 34.963 36.085 18.011 44.483 1.296 36.047 .675 36.355 .675 53.715 .676 53.715 .676 36.854 17.509 45.35 17.509 53.715 18.509 53.715 18.509 45.353"/><polygon fill="#FFF" points="35.656 35.314 35.656 35.233 31.292 33.112"/><polygon fill="#FFF" points="35.675 36.351 35.057 36.039 36.174 35.485 35.656 35.233 35.656 35.314 31.292 33.112 18.675 26.978 18.675 27.438 18.248 27.649 30.815 33.991 35.041 36.046 34.963 36.085 35.656 36.435 35.656 36.857 35.675 36.848"/><polygon fill="#FFF" points="18.248 27.649 17.823 27.435 17.823 26.745 9.824 30.706 .509 35.321 .509 35.319 .172 35.486 1.309 36.039 16.052 28.736"/><rect width=".002" height=".694" x=".985" y="35.853" fill="#FFF"/><polygon fill="#FFF" points="17.823 26.745 17.823 27.435 18.248 27.649 18.675 27.438 18.675 26.978 18.007 26.653"/><polygon fill="#FFF" points="36.676 36.855 36.676 36.428 36.656 36.438 36.656 36.939 36.154 36.686 35.676 36.923 35.676 53.715 36.675 53.715 36.675 36.855"/><polygon fill="#FFF" points="37.311 36.038 36.174 35.485 35.057 36.039 35.675 36.351 35.675 36.848 35.676 36.848 35.676 36.923 36.154 36.686 36.656 36.939 36.656 36.438 36.676 36.428 36.676 36.353"/><rect width=".016" height=".001" x="1.294" y="36.042" fill="#FFF" transform="matrix(0.9062 -0.4229 0.4229 0.9062 -15.1197 3.9319)"/><polygon fill="#FFF" points="0 35.402 0 35.571 .172 35.486"/><polygon fill="#FFF" points=".509 36.438 .509 36.939 .007 36.686 0 36.689 0 53.715 .675 53.715 .675 36.355"/><polygon fill="#FFF" points=".509 36.939 .509 36.438 .675 36.355 .675 36.354 1.295 36.046 1.294 36.046 1.309 36.039 .172 35.486 0 35.571 0 36.689 .007 36.686"/><polygon fill="#FFF" points=".675 -.113 .317 -.113 .675 .061"/><polygon fill="#FFF" points="0 .682 0 .854 .173 .769"/><polygon fill="#FFF" points=".675 .52 .675 .061 .317 -.113 0 -.113 0 .682 .173 .769"/></g></svg>